<svg width="32" height="32" viewBox="0 0 32 32" fill="none" xmlns="http://www.w3.org/2000/svg">
<path d="M24.3333 18.6666V14.3332H20V12.3332H24.3333V7.99989H26.3333V12.3332H30.6666V14.3332H26.3333V18.6666H24.3333ZM12 15.9666C10.5333 15.9666 9.33331 15.4999 8.39998 14.5666C7.46665 13.6332 6.99998 12.4332 6.99998 10.9666C6.99998 9.49989 7.46665 8.29989 8.39998 7.36655C9.33331 6.43322 10.5333 5.96655 12 5.96655C13.4666 5.96655 14.6666 6.43322 15.6 7.36655C16.5333 8.29989 17 9.49989 17 10.9666C17 12.4332 16.5333 13.6332 15.6 14.5666C14.6666 15.4999 13.4666 15.9666 12 15.9666ZM1.33331 26.6666V23.5332C1.33331 22.7554 1.52776 22.0499 1.91665 21.4166C2.30554 20.7832 2.86665 20.311 3.59998 19.9999C5.26665 19.2666 6.74818 18.7499 8.04458 18.4499C9.341 18.1499 10.6577 17.9999 11.9946 17.9999C13.3315 17.9999 14.6444 18.1499 15.9333 18.4499C17.2222 18.7499 18.7 19.2666 20.3666 19.9999C21.1 20.3332 21.6666 20.811 22.0666 21.4332C22.4666 22.0554 22.6666 22.7554 22.6666 23.5332V26.6666H1.33331ZM3.33331 24.6666H20.6666V23.5332C20.6666 23.1777 20.5666 22.8388 20.3666 22.5166C20.1666 22.1943 19.9 21.9554 19.5666 21.7999C17.9889 21.0666 16.6555 20.5832 15.5666 20.3499C14.4778 20.1166 13.2889 19.9999 12 19.9999C10.7111 19.9999 9.51665 20.1166 8.41665 20.3499C7.31665 20.5832 5.97776 21.0666 4.39998 21.7999C4.06665 21.9554 3.80554 22.1943 3.61665 22.5166C3.42776 22.8388 3.33331 23.1777 3.33331 23.5332V24.6666ZM12 13.9666C12.8666 13.9666 13.5833 13.6832 14.15 13.1166C14.7166 12.5499 15 11.8332 15 10.9666C15 10.0999 14.7166 9.38322 14.15 8.81655C13.5833 8.24989 12.8666 7.96655 12 7.96655C11.1333 7.96655 10.4166 8.24989 9.84998 8.81655C9.28331 9.38322 8.99998 10.0999 8.99998 10.9666C8.99998 11.8332 9.28331 12.5499 9.84998 13.1166C10.4166 13.6832 11.1333 13.9666 12 13.9666Z" fill="#9DB2CE"/>
</svg>
