<svg width="31" height="33" viewBox="0 0 31 33" fill="none" xmlns="http://www.w3.org/2000/svg">
<path d="M12.9166 16.3281C11.4958 16.3281 10.3333 15.8469 9.42915 14.8844C8.52498 13.9219 8.0729 12.6844 8.0729 11.1719C8.0729 9.65937 8.52498 8.42188 9.42915 7.45938C10.3333 6.49687 11.4958 6.01562 12.9166 6.01562C14.3375 6.01562 15.5 6.49687 16.4041 7.45938C17.3083 8.42188 17.7604 9.65937 17.7604 11.1719C17.7604 12.6844 17.3083 13.9219 16.4041 14.8844C15.5 15.8469 14.3375 16.3281 12.9166 16.3281ZM2.58331 27.3625V24.1313C2.58331 23.3292 2.77168 22.6073 3.14842 21.9656C3.52515 21.324 4.06873 20.8313 4.77915 20.4875C6.32915 19.7542 7.76613 19.2271 9.09008 18.9062C10.414 18.5854 11.6896 18.425 12.9166 18.425H13.6594C13.5302 18.7458 13.4333 19.0609 13.3687 19.3703C13.3041 19.6797 13.2503 20.0521 13.2073 20.4875H12.9166C11.668 20.4875 10.4463 20.6307 9.25154 20.9172C8.05675 21.2036 6.82429 21.6792 5.55415 22.3438C5.2097 22.5271 4.95137 22.7849 4.77915 23.1172C4.60692 23.4495 4.52081 23.7875 4.52081 24.1313V25.3H13.2073C13.3149 25.7125 13.4441 26.0849 13.5948 26.4172C13.7455 26.7495 13.9285 27.0646 14.1437 27.3625H2.58331ZM21.5385 28.875L21.2156 26.6063C20.8496 26.4917 20.4783 26.3255 20.1015 26.1078C19.7248 25.8901 19.4073 25.6437 19.1489 25.3687L17.3729 25.7812L16.5656 24.3375L18.0833 22.825C18.0403 22.6188 18.0187 22.3323 18.0187 21.9656C18.0187 21.599 18.0403 21.3125 18.0833 21.1063L16.5656 19.5938L17.3729 18.15L19.1489 18.5625C19.4073 18.2875 19.7248 18.0411 20.1015 17.8234C20.4783 17.6057 20.8496 17.4396 21.2156 17.325L21.5385 15.0563H23.2823L23.6052 17.325C23.9712 17.4396 24.3425 17.6057 24.7192 17.8234C25.096 18.0411 25.4135 18.2875 25.6719 18.5625L27.4479 18.15L28.2552 19.5938L26.7375 21.1063C26.7805 21.3125 26.8021 21.599 26.8021 21.9656C26.8021 22.3323 26.7805 22.6188 26.7375 22.825L28.2552 24.3375L27.4479 25.7812L25.6719 25.3687C25.4135 25.6437 25.096 25.8901 24.7192 26.1078C24.3425 26.3255 23.9712 26.4917 23.6052 26.6063L23.2823 28.875H21.5385ZM22.4104 24.7156C23.1854 24.7156 23.8097 24.4635 24.2833 23.9594C24.7569 23.4552 24.9937 22.7906 24.9937 21.9656C24.9937 21.1406 24.7569 20.476 24.2833 19.9719C23.8097 19.4677 23.1854 19.2156 22.4104 19.2156C21.6354 19.2156 21.0111 19.4677 20.5375 19.9719C20.0639 20.476 19.8271 21.1406 19.8271 21.9656C19.8271 22.7906 20.0639 23.4552 20.5375 23.9594C21.0111 24.4635 21.6354 24.7156 22.4104 24.7156ZM12.9166 14.2656C13.7562 14.2656 14.4505 13.9734 14.9995 13.3891C15.5484 12.8047 15.8229 12.0656 15.8229 11.1719C15.8229 10.2781 15.5484 9.53906 14.9995 8.95469C14.4505 8.37031 13.7562 8.07812 12.9166 8.07812C12.0771 8.07812 11.3828 8.37031 10.8338 8.95469C10.2849 9.53906 10.0104 10.2781 10.0104 11.1719C10.0104 12.0656 10.2849 12.8047 10.8338 13.3891C11.3828 13.9734 12.0771 14.2656 12.9166 14.2656Z" fill="#9DB2CE"/>
</svg>
