<svg width="34" height="24" viewBox="0 0 34 24" fill="none" xmlns="http://www.w3.org/2000/svg">
<path d="M32.25 0.75C32.4821 0.75 32.7046 0.829018 32.8687 0.96967C32.901 0.99733 32.9305 1.02693 32.957 1.05814C33.0655 1.18567 33.125 1.3402 33.125 1.5V10.5C33.125 10.6598 33.0655 10.8143 32.957 10.9419C32.9305 10.9731 32.901 11.0027 32.8687 11.0303C32.7046 11.171 32.4821 11.25 32.25 11.25H29.943H29.7788H24.2212H24.057H21.75C21.5179 11.25 21.2954 11.171 21.1313 11.0303C21.099 11.0027 21.0695 10.9731 21.043 10.9419C20.9345 10.8143 20.875 10.6598 20.875 10.5V1.5C20.875 1.34021 20.9345 1.18567 21.043 1.05815C21.0695 1.02693 21.099 0.99733 21.1313 0.96967C21.2954 0.829018 21.5179 0.75 21.75 0.75H24.057H24.2212H29.7788H29.943H32.25ZM21.75 0C21.3304 0 20.9264 0.129151 20.6102 0.361767C20.5766 0.386468 20.5441 0.412336 20.5126 0.43934C20.1844 0.720644 20 1.10218 20 1.5V10.5C20 10.8978 20.1844 11.2794 20.5126 11.5607C20.5441 11.5877 20.5766 11.6135 20.6102 11.6382C20.9264 11.8708 21.3304 12 21.75 12H23.4141H23.5783H30.4217H30.5858H32.25C32.6696 12 33.0736 11.8708 33.3898 11.6382C33.4233 11.6135 33.4559 11.5877 33.4874 11.5607C33.8156 11.2794 34 10.8978 34 10.5V1.5C34 1.10218 33.8156 0.720644 33.4874 0.43934C33.4559 0.412336 33.4233 0.386468 33.3898 0.361767C33.0736 0.12915 32.6696 0 32.25 0H30.5858H30.4217H23.5783H23.4141H21.75Z" fill="#9DB2CE" stroke="#9DB2CE" stroke-width="200"/>
<path d="M26 8.25047C26 8.15204 26.0259 8.05457 26.0761 7.96363C26.1264 7.8727 26.2 7.79007 26.2929 7.72047C26.3858 7.65087 26.496 7.59566 26.6173 7.55799C26.7386 7.52032 26.8687 7.50094 27 7.50094C27.1313 7.50094 27.2614 7.52032 27.3827 7.55799C27.504 7.59566 27.6142 7.65087 27.7071 7.72047C27.8 7.79007 27.8736 7.8727 27.9239 7.96363C27.9741 8.05457 28 8.15204 28 8.25047C28 8.44926 27.8946 8.6399 27.7071 8.78047C27.5196 8.92103 27.2652 9 27 9C26.7348 9 26.4804 8.92103 26.2929 8.78047C26.1054 8.6399 26 8.44926 26 8.25047ZM26.098 3.74953C26.0847 3.65497 26.098 3.55937 26.1372 3.46893C26.1764 3.37849 26.2405 3.29523 26.3253 3.22455C26.4102 3.15387 26.5139 3.09736 26.6298 3.05868C26.7457 3.01999 26.8711 3 26.998 3C27.1249 3 27.2503 3.01999 27.3662 3.05868C27.4821 3.09736 27.5858 3.15387 27.6707 3.22455C27.7555 3.29523 27.8196 3.37849 27.8588 3.46893C27.898 3.55937 27.9113 3.65497 27.898 3.74953L27.548 6.37814C27.5362 6.4814 27.4732 6.5776 27.3714 6.6477C27.2695 6.7178 27.1363 6.75669 26.998 6.75669C26.8597 6.75669 26.7265 6.7178 26.6246 6.6477C26.5228 6.5776 26.4598 6.4814 26.448 6.37814L26.098 3.74953Z" fill="#9DB2CE"/>
<path d="M12 12C13.5913 12 15.1174 11.3679 16.2426 10.2426C17.3679 9.11742 18 7.5913 18 6C18 4.4087 17.3679 2.88258 16.2426 1.75736C15.1174 0.632141 13.5913 0 12 0C10.4087 0 8.88258 0.632141 7.75736 1.75736C6.63214 2.88258 6 4.4087 6 6C6 7.5913 6.63214 9.11742 7.75736 10.2426C8.88258 11.3679 10.4087 12 12 12ZM16 6C16 7.06087 15.5786 8.07828 14.8284 8.82843C14.0783 9.57857 13.0609 10 12 10C10.9391 10 9.92172 9.57857 9.17157 8.82843C8.42143 8.07828 8 7.06087 8 6C8 4.93913 8.42143 3.92172 9.17157 3.17157C9.92172 2.42143 10.9391 2 12 2C13.0609 2 14.0783 2.42143 14.8284 3.17157C15.5786 3.92172 16 4.93913 16 6ZM24 22C24 24 22 24 22 24H2C2 24 0 24 0 22C0 20 2 14 12 14C22 14 24 20 24 22ZM22 21.992C21.998 21.5 21.692 20.02 20.336 18.664C19.032 17.36 16.578 16 12 16C7.42 16 4.968 17.36 3.664 18.664C2.308 20.02 2.004 21.5 2 21.992H22Z" fill="#9DB2CE"/>
</svg>
