<svg width="38" height="24" viewBox="0 0 38 24" fill="none" xmlns="http://www.w3.org/2000/svg">
<path d="M29.8756 5.06916L29.4857 8.58276C29.3827 8.59193 29.2613 8.60844 29.1547 8.65053C29.1316 8.65963 29.0979 8.6742 29.0599 8.697C29.0396 8.58177 29.0265 8.48732 29.0233 8.45276L29.0234 8.45275L29.022 8.44073L28.6191 5.06602C28.6191 5.06588 28.6191 5.06575 28.619 5.06561C28.6116 5.00169 28.619 4.93645 28.6418 4.8731C28.6648 4.80938 28.7039 4.74665 28.7601 4.69049C28.8164 4.63418 28.8885 4.5861 28.9732 4.55216C29.0579 4.51821 29.1516 4.5 29.2475 4.5C29.3434 4.5 29.4371 4.51821 29.5218 4.55216C29.6065 4.5861 29.6786 4.63418 29.7349 4.69049C29.7911 4.74665 29.8302 4.80938 29.8532 4.8731C29.8761 4.93658 29.8834 5.00197 29.8759 5.06602L29.8756 5.06916ZM28.5 11.8757C28.5 11.8015 28.5162 11.7266 28.5493 11.6546C28.5825 11.5824 28.6329 11.5132 28.7005 11.4525C28.7681 11.3916 28.8512 11.3409 28.9462 11.3055C29.0412 11.2701 29.1446 11.2514 29.25 11.2514C29.3554 11.2514 29.4588 11.2701 29.5538 11.3055C29.6488 11.3409 29.7319 11.3916 29.7995 11.4525C29.8671 11.5132 29.9175 11.5824 29.9507 11.6546C29.9838 11.7266 30 11.8015 30 11.8757C30 12.0231 29.9353 12.1768 29.7995 12.299C29.6619 12.4227 29.465 12.5 29.25 12.5C29.035 12.5 28.8381 12.4227 28.7005 12.299C28.5647 12.1768 28.5 12.0231 28.5 11.8757Z" fill="#9DB2CE" stroke="#9DB2CE" stroke-linecap="square"/>
<path d="M12 12C13.5913 12 15.1174 11.3679 16.2426 10.2426C17.3679 9.11742 18 7.5913 18 6C18 4.4087 17.3679 2.88258 16.2426 1.75736C15.1174 0.632141 13.5913 0 12 0C10.4087 0 8.88258 0.632141 7.75736 1.75736C6.63214 2.88258 6 4.4087 6 6C6 7.5913 6.63214 9.11742 7.75736 10.2426C8.88258 11.3679 10.4087 12 12 12ZM16 6C16 7.06087 15.5786 8.07828 14.8284 8.82843C14.0783 9.57857 13.0609 10 12 10C10.9391 10 9.92172 9.57857 9.17157 8.82843C8.42143 8.07828 8 7.06087 8 6C8 4.93913 8.42143 3.92172 9.17157 3.17157C9.92172 2.42143 10.9391 2 12 2C13.0609 2 14.0783 2.42143 14.8284 3.17157C15.5786 3.92172 16 4.93913 16 6ZM24 22C24 24 22 24 22 24H2C2 24 0 24 0 22C0 20 2 14 12 14C22 14 24 20 24 22ZM22 21.992C21.998 21.5 21.692 20.02 20.336 18.664C19.032 17.36 16.578 16 12 16C7.42 16 4.968 17.36 3.664 18.664C2.308 20.02 2.004 21.5 2 21.992H22Z" fill="#9DB2CE"/>
<path d="M22 2.75H37C37.1381 2.75 37.25 2.86193 37.25 3V14C37.25 14.1381 37.1381 14.25 37 14.25H22C21.8619 14.25 21.75 14.1381 21.75 14V3C21.75 2.86193 21.8619 2.75 22 2.75Z" stroke="#9DB2CE" stroke-width="1.5"/>
</svg>
