<svg width="35" height="26" viewBox="0 0 35 26" fill="none" xmlns="http://www.w3.org/2000/svg">
<path d="M27.8756 3.06916L27.4857 6.58276C27.3827 6.59193 27.2613 6.60844 27.1547 6.65053C27.1316 6.65963 27.0979 6.6742 27.0599 6.697C27.0396 6.58177 27.0265 6.48732 27.0233 6.45276L27.0234 6.45275L27.022 6.44073L26.6191 3.06602C26.6191 3.06588 26.6191 3.06575 26.619 3.06561C26.6116 3.00169 26.619 2.93645 26.6418 2.8731C26.6648 2.80938 26.7039 2.74665 26.7601 2.69049C26.8164 2.63418 26.8885 2.5861 26.9732 2.55216C27.0579 2.51821 27.1516 2.5 27.2475 2.5C27.3434 2.5 27.4371 2.51821 27.5218 2.55216C27.6065 2.5861 27.6786 2.63418 27.7349 2.69049C27.7911 2.74665 27.8302 2.80938 27.8532 2.8731C27.8761 2.93658 27.8834 3.00197 27.8759 3.06602L27.8756 3.06916ZM26.5 9.8757C26.5 9.80153 26.5162 9.72658 26.5493 9.6546C26.5825 9.58243 26.6329 9.51321 26.7005 9.45246C26.7681 9.39161 26.8512 9.34091 26.9462 9.30553C27.0412 9.27013 27.1446 9.25141 27.25 9.25141C27.3554 9.25141 27.4588 9.27013 27.5538 9.30553C27.6488 9.34091 27.7319 9.39161 27.7995 9.45246C27.8671 9.51321 27.9175 9.58243 27.9507 9.6546C27.9838 9.72658 28 9.80153 28 9.8757C28 10.0231 27.9353 10.1768 27.7995 10.299C27.6619 10.4227 27.465 10.5 27.25 10.5C27.035 10.5 26.8381 10.4227 26.7005 10.299C26.5647 10.1768 26.5 10.0231 26.5 9.8757Z" fill="#9DB2CE" stroke="#9DB2CE" stroke-linecap="square"/>
<path d="M12 14C13.5913 14 15.1174 13.3679 16.2426 12.2426C17.3679 11.1174 18 9.5913 18 8C18 6.4087 17.3679 4.88258 16.2426 3.75736C15.1174 2.63214 13.5913 2 12 2C10.4087 2 8.88258 2.63214 7.75736 3.75736C6.63214 4.88258 6 6.4087 6 8C6 9.5913 6.63214 11.1174 7.75736 12.2426C8.88258 13.3679 10.4087 14 12 14ZM16 8C16 9.06087 15.5786 10.0783 14.8284 10.8284C14.0783 11.5786 13.0609 12 12 12C10.9391 12 9.92172 11.5786 9.17157 10.8284C8.42143 10.0783 8 9.06087 8 8C8 6.93913 8.42143 5.92172 9.17157 5.17157C9.92172 4.42143 10.9391 4 12 4C13.0609 4 14.0783 4.42143 14.8284 5.17157C15.5786 5.92172 16 6.93913 16 8ZM24 24C24 26 22 26 22 26H2C2 26 0 26 0 24C0 22 2 16 12 16C22 16 24 22 24 24ZM22 23.992C21.998 23.5 21.692 22.02 20.336 20.664C19.032 19.36 16.578 18 12 18C7.42 18 4.968 19.36 3.664 20.664C2.308 22.02 2.004 23.5 2 23.992H22Z" fill="#9DB2CE"/>
<mask id="path-3-inside-1_211_453" fill="white">
<rect x="19" width="16" height="13" rx="1"/>
</mask>
<rect x="19" width="16" height="13" rx="1" stroke="#9DB2CE" stroke-width="2.8" mask="url(#path-3-inside-1_211_453)"/>
</svg>
